# xmcd
#
# Track frame offsets:
#	150
#	16632
#	38587
#	56197
#	82485
#	106997
#	127522
#	145440
#	164777
#	180515
#	200495
#	218840
#	236260
#	254497
#	273240
#	293322
#
# Disc length: 4141 seconds
#
# Revision: 0
# Processed by: cddbd v1.5.1PL2 Copyright (c) Steve Scherf et al.
# Submitted via: EasyCDDAExtractor 8.2.2.1
#
DISCID=df102b10
DTITLE=Various Artist - Best Of Motorcity Vol 04
DYEAR=1995
DGENRE=R&B
TTITLE0=Jimmy Ruffin - Wake Me Up When It's Over
TTITLE1=Frances Nero - You're The Push Behind Me
TTITLE2=Jake Jacas - Two Way Street
TTITLE3=Miracles - Heaven Knows
TTITLE4=Sisters Love - Sympathy
TTITLE5=Mable John - Time Stops
TTITLE6=Sherri Taylor - Weak Hearted
TTITLE7=Lois Reeves - Patience Is A Virtue
TTITLE8=Billy Gordon and C Brand - Half Hearted
TTITLE9=Marilyn Mcleod - Wish You Were Here
TTITLE10=Blinky - Good For Nothing
TTITLE11=Satintones - It's A Rough World
TTITLE12=Louvain Demps - On The Front Page
TTITLE13=Scherrie Payne - Who's Wrong, Who's Right
TTITLE14=Frankie Gaye - I Wish That I Could Be
TTITLE15=Carolyn Crawford - Timeless
EXTD=Hot Productions, Inc 1995\nHTCD 7704-2\nUPC 0 53993 77042 9
EXTT0=
EXTT1=
EXTT2=
EXTT3=
EXTT4=
EXTT5=
EXTT6=
EXTT7=
EXTT8=
EXTT9=
EXTT10=
EXTT11=
EXTT12=
EXTT13=
EXTT14=
EXTT15=
PLAYORDER=
